<svg id="svg" version="1.1" xmlns="http://www.w3.org/2000/svg" xmlns:xlink="http://www.w3.org/1999/xlink" width="400" height="400" viewBox="0, 0, 400,400"><g id="svgg"><path id="path0" d="M124.400 200.400 L 124.400 323.200 140.999 323.200 L 157.597 323.200 157.699 270.300 L 157.800 217.400 208.100 217.298 L 258.400 217.197 258.400 204.000 L 258.400 190.803 208.100 190.702 L 157.800 190.600 157.800 147.400 L 157.800 104.200 216.700 104.099 L 275.600 103.997 275.600 90.799 L 275.600 77.600 200.000 77.600 L 124.400 77.600 124.400 200.400 " stroke="none" fill="#fcfcfc" fill-rule="evenodd"></path><path id="path1" d="M32.604 0.407 C 32.742 0.630,33.023 0.709,33.228 0.583 C 33.432 0.456,33.600 0.563,33.600 0.819 C 33.600 1.109,33.335 1.174,32.900 0.991 C 31.382 0.353,30.166 0.264,30.700 0.830 C 30.975 1.121,31.200 1.504,31.200 1.680 C 31.200 2.233,30.309 2.028,29.823 1.364 C 29.398 0.783,29.311 0.784,28.822 1.373 C 28.356 1.935,28.385 1.984,29.043 1.755 C 29.743 1.512,29.739 1.541,29.000 2.133 C 28.039 2.904,27.131 2.971,26.480 2.320 C 26.017 1.857,25.788 2.293,25.957 3.314 C 26.018 3.682,24.417 3.516,23.728 3.083 C 23.468 2.920,23.142 2.970,23.004 3.193 C 22.866 3.417,22.943 3.600,23.176 3.600 C 23.409 3.600,23.600 3.780,23.600 4.000 C 23.600 4.220,23.412 4.400,23.183 4.400 C 22.954 4.400,22.394 4.747,21.939 5.171 C 21.058 5.992,19.818 5.851,20.157 4.969 C 20.282 4.643,20.149 4.521,19.811 4.651 C 18.954 4.980,18.720 6.000,19.502 6.000 C 20.028 6.000,19.968 6.147,19.230 6.664 C 18.347 7.282,18.249 7.282,17.797 6.664 C 17.171 5.808,16.752 5.809,17.081 6.666 C 17.233 7.064,17.174 7.231,16.933 7.082 C 16.712 6.945,16.141 7.106,15.665 7.439 C 14.750 8.080,14.491 8.869,15.250 8.700 C 15.497 8.645,15.782 8.825,15.883 9.100 C 16.165 9.868,14.894 9.693,14.432 8.900 C 14.206 8.512,14.019 8.423,14.012 8.700 C 14.005 8.975,13.700 9.200,13.333 9.200 C 12.967 9.200,12.786 9.319,12.931 9.464 C 13.076 9.609,12.847 9.972,12.422 10.270 C 11.949 10.601,11.711 11.137,11.809 11.649 C 11.988 12.576,10.776 14.129,10.506 13.319 C 10.237 12.511,9.274 13.196,9.494 14.039 C 9.608 14.472,9.435 15.135,9.111 15.513 C 8.787 15.891,8.409 16.517,8.272 16.904 C 8.135 17.291,7.792 17.561,7.511 17.504 C 7.227 17.446,7.049 17.699,7.111 18.071 C 7.241 18.858,5.321 20.922,4.774 20.584 C 4.568 20.457,4.400 20.633,4.400 20.976 C 4.400 21.319,4.591 21.600,4.824 21.600 C 5.057 21.600,5.141 21.772,5.011 21.983 C 4.881 22.193,4.510 22.264,4.187 22.140 C 3.864 22.016,3.600 22.114,3.600 22.357 C 3.600 22.601,3.780 22.800,4.000 22.800 C 4.220 22.800,4.400 22.991,4.400 23.224 C 4.400 23.457,4.240 23.549,4.045 23.428 C 3.850 23.307,3.715 23.511,3.745 23.881 C 3.775 24.251,3.350 24.786,2.800 25.071 C 1.913 25.530,1.890 25.592,2.600 25.626 C 3.040 25.646,3.201 25.745,2.958 25.846 C 2.715 25.946,2.597 26.451,2.696 26.967 C 2.795 27.484,2.678 28.028,2.438 28.177 C 2.197 28.325,2.000 28.857,2.000 29.357 C 2.000 30.539,1.608 30.904,0.937 30.348 C 0.525 30.006,0.400 30.053,0.400 30.551 C 0.400 30.908,0.601 31.200,0.847 31.200 C 1.468 31.200,1.112 36.496,0.476 36.708 C -0.238 36.946,-0.214 362.409,0.500 363.179 C 0.900 363.610,0.900 363.661,0.500 363.435 C 0.187 363.258,0.000 363.402,0.000 363.819 C 0.000 364.199,0.222 364.400,0.516 364.288 C 1.069 364.075,1.203 367.024,0.678 367.873 C 0.520 368.130,0.695 368.287,1.104 368.255 C 1.803 368.200,2.213 370.814,1.660 371.793 C 1.315 372.403,1.301 373.585,1.641 373.375 C 2.007 373.149,2.534 373.928,2.690 374.924 C 2.765 375.410,2.637 375.552,2.301 375.356 C 2.026 375.194,2.147 375.458,2.571 375.941 C 3.106 376.551,3.429 376.676,3.630 376.351 C 3.816 376.051,4.152 376.333,4.570 377.142 C 5.181 378.324,5.178 378.402,4.510 378.425 C 3.975 378.444,4.032 378.544,4.742 378.828 C 5.334 379.065,5.600 379.422,5.459 379.790 C 5.336 380.111,5.435 380.498,5.679 380.649 C 5.948 380.815,6.011 380.741,5.838 380.462 C 5.681 380.208,5.743 380.000,5.976 380.000 C 6.209 380.000,6.400 380.257,6.400 380.571 C 6.400 380.885,6.702 381.200,7.071 381.271 C 7.677 381.387,7.667 381.476,6.971 382.172 C 6.209 382.935,6.212 382.942,7.200 382.692 C 8.168 382.448,8.174 382.459,7.400 383.046 C 6.634 383.627,6.647 383.641,7.700 383.383 C 8.688 383.141,8.800 383.220,8.800 384.157 C 8.800 384.730,8.973 385.200,9.185 385.200 C 9.749 385.200,14.390 389.876,14.107 390.159 C 13.975 390.292,14.327 390.400,14.891 390.400 C 15.926 390.400,16.598 391.263,16.446 392.400 C 16.376 392.933,16.414 392.933,16.791 392.400 C 17.289 391.696,18.584 392.979,18.125 393.721 C 17.980 393.956,18.078 393.999,18.361 393.824 C 19.303 393.242,20.943 393.946,20.338 394.674 C 19.874 395.234,19.911 395.282,20.626 395.055 C 21.237 394.861,21.660 395.085,22.287 395.933 C 23.123 397.063,24.069 397.284,25.207 396.612 C 25.560 396.404,25.492 396.614,25.038 397.131 C 24.619 397.609,24.462 398.000,24.689 398.000 C 24.916 398.000,25.305 397.755,25.554 397.456 C 26.019 396.895,27.822 397.011,28.640 397.653 C 28.883 397.843,29.603 398.032,30.240 398.072 C 30.878 398.112,31.622 398.312,31.893 398.516 C 32.164 398.719,33.424 398.912,34.693 398.943 C 36.302 398.983,36.970 399.151,36.900 399.500 C 36.761 400.194,37.199 400.125,38.098 399.311 C 38.699 398.767,38.832 398.746,38.730 399.211 C 38.555 400.004,360.135 400.318,361.089 399.526 C 361.537 399.155,361.740 399.176,362.024 399.626 C 362.324 400.099,362.389 400.078,362.394 399.508 C 362.400 398.772,364.619 398.728,365.147 399.453 C 365.512 399.954,366.800 400.105,366.800 399.647 C 366.800 399.433,366.575 399.179,366.300 399.081 C 366.025 398.983,366.314 398.969,366.942 399.050 C 367.777 399.157,368.028 399.051,367.876 398.655 C 367.737 398.292,367.956 398.132,368.534 398.172 C 369.010 398.205,369.355 398.450,369.300 398.716 C 369.245 398.982,369.489 399.200,369.843 399.200 C 370.224 399.200,370.400 398.976,370.274 398.650 C 369.972 397.862,371.611 397.236,373.360 397.471 C 374.173 397.581,375.145 397.536,375.520 397.372 C 375.894 397.207,376.319 397.096,376.465 397.125 C 376.611 397.153,376.924 396.621,377.161 395.941 C 377.518 394.915,377.760 394.737,378.584 394.895 C 379.129 394.999,379.488 394.943,379.381 394.770 C 379.274 394.597,379.371 394.341,379.596 394.202 C 379.821 394.063,380.113 394.230,380.245 394.572 C 380.602 395.503,381.238 394.889,380.980 393.862 C 380.801 393.149,380.938 392.960,381.673 392.904 C 382.370 392.852,382.450 392.922,382.006 393.196 C 381.512 393.502,381.531 393.599,382.128 393.828 C 383.087 394.196,383.467 393.720,382.917 392.839 C 382.428 392.056,384.602 390.542,386.800 390.136 C 388.143 389.888,390.089 387.984,389.867 387.134 C 389.749 386.684,389.875 386.531,390.245 386.673 C 390.550 386.790,390.800 386.686,390.800 386.443 C 390.800 386.199,390.547 386.000,390.238 386.000 C 389.784 386.000,389.763 385.813,390.131 385.034 C 390.382 384.503,390.705 384.141,390.850 384.231 C 390.994 384.320,391.410 383.765,391.775 382.996 C 392.139 382.228,392.620 381.600,392.842 381.600 C 393.065 381.600,393.148 381.439,393.026 381.242 C 392.818 380.905,393.895 380.214,394.459 380.323 C 394.601 380.350,394.631 379.974,394.524 379.486 C 394.383 378.840,394.435 378.747,394.715 379.143 C 395.028 379.584,395.160 379.588,395.421 379.166 C 395.606 378.867,395.552 378.584,395.293 378.498 C 395.047 378.416,394.944 378.091,395.064 377.776 C 395.185 377.462,395.414 377.285,395.574 377.384 C 395.733 377.482,395.832 377.166,395.792 376.681 C 395.724 375.837,396.208 375.219,396.949 375.206 C 397.141 375.203,397.051 375.499,396.749 375.864 C 396.246 376.472,396.276 376.481,397.100 375.968 C 398.247 375.254,398.247 374.804,397.100 374.784 C 396.252 374.769,396.263 374.734,397.300 374.171 C 398.483 373.529,398.761 372.800,397.823 372.800 C 397.167 372.800,397.322 371.093,397.999 370.867 C 398.222 370.793,398.303 370.567,398.179 370.366 C 398.055 370.165,398.233 370.000,398.576 370.000 C 398.919 370.000,399.227 369.685,399.261 369.300 C 399.294 368.915,399.351 368.330,399.386 368.000 C 399.421 367.670,399.323 367.220,399.169 367.000 C 398.582 366.165,398.864 364.451,399.550 364.686 C 400.042 364.854,400.018 364.766,399.451 364.323 C 398.907 363.899,398.782 363.486,398.995 362.817 C 399.222 362.101,399.366 362.018,399.636 362.447 C 399.834 362.762,399.988 293.460,399.994 201.643 C 400.000 83.508,399.883 40.141,399.557 39.748 C 399.299 39.437,399.244 38.913,399.427 38.505 C 399.943 37.356,399.928 36.453,399.397 36.657 C 399.048 36.790,398.891 36.187,398.854 34.574 C 398.808 32.599,398.880 32.368,399.401 32.801 C 399.815 33.145,400.000 33.159,400.000 32.849 C 400.000 32.602,399.809 32.400,399.576 32.400 C 399.343 32.400,399.275 32.202,399.425 31.960 C 399.617 31.648,399.479 31.637,398.948 31.921 C 398.290 32.273,398.191 32.157,398.123 30.961 C 398.059 29.816,398.186 29.593,398.923 29.554 C 399.735 29.511,399.741 29.493,399.000 29.311 C 398.560 29.202,397.975 28.931,397.700 28.708 C 397.112 28.231,397.015 26.638,397.595 26.997 C 397.822 27.137,397.889 26.977,397.753 26.621 C 397.622 26.279,397.228 26.000,396.877 26.000 C 396.382 26.000,396.347 25.893,396.720 25.520 C 397.313 24.927,397.340 24.400,396.776 24.400 C 396.543 24.400,396.481 24.608,396.638 24.862 C 396.823 25.161,396.747 25.214,396.423 25.014 C 396.143 24.841,395.995 24.217,396.086 23.594 C 396.197 22.837,396.094 22.542,395.763 22.670 C 395.435 22.795,395.304 22.454,395.361 21.628 C 395.447 20.381,395.057 19.990,394.634 20.900 C 394.506 21.175,394.460 20.815,394.531 20.100 C 394.618 19.235,394.488 18.800,394.143 18.800 C 393.825 18.800,393.718 19.069,393.866 19.500 C 394.062 20.069,393.987 20.050,393.467 19.400 C 393.114 18.960,392.820 18.375,392.813 18.100 C 392.806 17.825,392.575 17.597,392.300 17.594 C 391.957 17.590,391.982 17.472,392.381 17.220 C 392.700 17.018,393.150 16.957,393.381 17.085 C 393.611 17.213,393.391 16.920,392.891 16.435 C 392.391 15.950,392.087 15.383,392.215 15.176 C 392.451 14.794,391.939 14.655,390.735 14.773 C 390.370 14.809,389.935 14.619,389.770 14.351 C 389.569 14.026,389.668 13.940,390.068 14.094 C 390.433 14.234,390.667 14.093,390.667 13.733 C 390.667 13.356,390.400 13.211,389.930 13.334 C 389.508 13.445,388.982 13.228,388.697 12.827 C 388.424 12.441,387.930 12.022,387.600 11.895 C 387.109 11.705,387.123 11.657,387.676 11.632 C 388.048 11.614,388.483 11.389,388.642 11.132 C 388.836 10.817,388.713 10.748,388.266 10.919 C 387.900 11.060,387.600 11.031,387.600 10.856 C 387.600 10.680,387.198 10.551,386.707 10.568 C 386.176 10.587,385.804 10.357,385.789 10.000 C 385.775 9.670,385.516 9.455,385.214 9.523 C 384.758 9.624,384.754 9.538,385.189 9.013 C 385.478 8.665,385.598 8.265,385.457 8.124 C 385.316 7.982,385.200 8.096,385.200 8.377 C 385.200 8.733,384.869 8.804,384.102 8.611 C 382.675 8.253,382.000 7.671,382.000 6.800 C 382.000 6.414,381.696 5.851,381.325 5.549 C 380.729 5.064,380.683 5.088,380.934 5.757 C 381.175 6.397,381.125 6.436,380.614 6.011 C 380.281 5.735,380.089 5.380,380.187 5.221 C 380.285 5.063,380.120 4.933,379.821 4.933 C 379.521 4.933,379.368 5.173,379.481 5.467 C 379.593 5.760,379.486 6.000,379.243 6.000 C 378.999 6.000,378.800 5.832,378.800 5.627 C 378.800 5.422,378.437 5.139,377.994 4.998 C 377.551 4.857,377.281 4.592,377.395 4.409 C 377.508 4.225,377.241 4.169,376.801 4.284 C 376.353 4.401,376.000 4.296,376.000 4.047 C 376.000 3.801,375.490 3.600,374.867 3.600 C 374.243 3.600,373.610 3.477,373.459 3.326 C 373.061 2.927,370.318 2.013,369.500 2.006 C 369.115 2.003,368.800 1.750,368.800 1.444 C 368.800 1.034,368.405 0.938,367.300 1.079 C 365.958 1.249,365.877 1.211,366.530 0.718 C 367.197 0.215,367.137 0.159,365.830 0.071 C 364.771 -0.000,364.400 0.134,364.400 0.587 C 364.400 1.362,363.331 1.368,361.860 0.600 C 360.458 -0.131,39.348 -0.332,39.799 0.399 C 40.023 0.761,39.745 0.873,38.900 0.760 C 38.735 0.738,38.645 0.558,38.700 0.360 C 38.755 0.162,38.395 0.003,37.900 0.006 C 37.199 0.011,37.128 0.093,37.579 0.379 C 38.037 0.668,37.953 0.787,37.179 0.947 C 35.485 1.296,34.753 1.139,35.255 0.533 C 35.592 0.128,35.549 -0.000,35.078 -0.000 C 34.738 -0.000,34.376 0.315,34.276 0.700 C 34.102 1.367,34.091 1.367,34.046 0.700 C 34.018 0.275,33.676 0.000,33.176 0.000 C 32.720 0.000,32.465 0.181,32.604 0.407 M20.908 4.379 C 20.940 4.802,21.182 5.028,21.482 4.913 C 22.167 4.650,22.140 4.139,21.427 3.866 C 21.048 3.720,20.872 3.895,20.908 4.379 M14.196 10.306 C 13.974 10.468,13.497 10.910,13.135 11.290 C 12.565 11.888,12.447 11.899,12.246 11.374 C 12.097 10.988,12.336 10.639,12.907 10.410 C 14.031 9.958,14.755 9.900,14.196 10.306 M275.920 77.280 C 276.428 77.788,276.649 102.885,276.157 104.167 C 275.937 104.740,270.349 104.800,216.957 104.800 L 158.000 104.800 158.000 147.400 L 158.000 190.000 208.120 190.000 C 246.569 190.000,258.352 190.112,258.720 190.480 C 259.228 190.988,259.449 216.085,258.957 217.367 C 258.738 217.940,253.907 218.000,208.357 218.000 L 158.000 218.000 158.000 270.800 L 158.000 323.600 141.000 323.600 L 124.000 323.600 124.000 200.467 C 124.000 132.743,124.120 77.213,124.267 77.067 C 124.789 76.544,275.396 76.756,275.920 77.280 M399.108 368.475 C 399.021 368.736,398.736 369.021,398.475 369.108 C 398.182 369.206,398.093 369.023,398.243 368.633 C 398.522 367.906,399.348 367.755,399.108 368.475 M2.800 372.933 C 2.800 373.373,2.749 373.658,2.687 373.567 C 2.625 373.475,2.357 373.115,2.093 372.767 C 1.707 372.258,1.729 372.133,2.206 372.133 C 2.533 372.133,2.800 372.493,2.800 372.933 M392.800 382.867 C 392.800 383.343,392.851 383.658,392.913 383.567 C 392.975 383.475,393.267 383.085,393.562 382.700 C 394.021 382.101,394.004 382.000,393.449 382.000 C 393.050 382.000,392.800 382.334,392.800 382.867 M391.600 384.624 C 391.600 385.187,391.763 385.546,391.962 385.423 C 392.162 385.300,392.231 384.839,392.116 384.400 C 391.828 383.299,391.600 383.398,391.600 384.624 M389.036 388.303 C 388.338 388.970,388.325 388.963,388.739 388.153 C 388.977 387.687,389.116 387.214,389.048 387.103 C 388.981 386.991,389.114 387.059,389.345 387.253 C 389.629 387.491,389.529 387.832,389.036 388.303 M387.842 389.268 C 388.036 389.583,387.913 389.652,387.466 389.481 C 387.086 389.335,386.800 389.420,386.800 389.679 C 386.800 389.929,386.692 390.025,386.560 389.893 C 386.260 389.593,386.725 388.800,387.200 388.800 C 387.394 388.800,387.683 389.011,387.842 389.268 M12.194 389.610 C 12.055 389.835,12.179 389.970,12.470 389.910 C 12.762 389.849,12.942 390.070,12.871 390.400 C 12.773 390.858,12.855 390.890,13.217 390.535 C 13.701 390.059,13.434 389.200,12.800 389.200 C 12.606 389.200,12.333 389.384,12.194 389.610 M384.500 391.344 C 383.402 391.888,383.296 392.805,384.363 392.526 C 384.783 392.416,385.216 391.983,385.326 391.563 C 385.435 391.143,385.497 390.822,385.463 390.849 C 385.428 390.876,384.995 391.099,384.500 391.344 M29.899 398.886 C 29.762 399.244,29.990 399.460,30.543 399.497 C 31.014 399.529,31.895 399.676,32.500 399.824 C 33.204 399.996,33.600 399.933,33.600 399.647 C 33.600 399.401,33.186 399.200,32.680 399.200 C 32.174 399.200,31.544 398.984,31.280 398.720 C 30.907 398.347,30.799 398.369,30.794 398.820 C 30.789 399.290,30.724 399.299,30.450 398.866 C 30.170 398.425,30.075 398.429,29.899 398.886 " stroke="none" fill="#048cfc" fill-rule="evenodd"></path><path id="path2" d="M124.267 77.067 C 124.120 77.213,124.000 132.743,124.000 200.467 L 124.000 323.600 141.000 323.600 L 158.000 323.600 158.000 270.800 L 158.000 218.000 208.357 218.000 C 253.907 218.000,258.738 217.940,258.957 217.367 C 259.449 216.085,259.228 190.988,258.720 190.480 C 258.352 190.112,246.569 190.000,208.120 190.000 L 158.000 190.000 158.000 147.400 L 158.000 104.800 216.957 104.800 C 270.349 104.800,275.937 104.740,276.157 104.167 C 276.649 102.885,276.428 77.788,275.920 77.280 C 275.396 76.756,124.789 76.544,124.267 77.067 M275.800 90.600 L 275.800 103.800 216.907 103.901 L 158.015 104.003 157.797 104.901 C 157.678 105.396,157.630 124.880,157.690 148.200 L 157.800 190.600 208.200 190.800 L 258.600 191.000 258.600 204.000 L 258.600 217.000 208.639 217.102 C 172.525 217.175,158.529 217.327,158.139 217.651 C 157.692 218.022,157.600 227.063,157.600 270.649 L 157.600 323.200 141.000 323.200 L 124.400 323.200 124.400 200.467 C 124.400 132.963,124.520 77.613,124.668 77.466 C 124.815 77.318,158.880 77.243,200.368 77.299 L 275.800 77.400 275.800 90.600 " stroke="none" fill="#5eb2fc" fill-rule="evenodd"></path><path id="path3" d="M32.176 0.613 C 33.092 1.306,33.600 1.364,33.600 0.776 C 33.600 0.543,33.432 0.456,33.228 0.583 C 33.023 0.709,32.742 0.630,32.604 0.407 C 32.466 0.183,32.138 0.006,31.876 0.013 C 31.614 0.020,31.749 0.290,32.176 0.613 M35.255 0.533 C 34.753 1.139,35.485 1.296,37.179 0.947 C 37.953 0.787,38.037 0.668,37.579 0.379 C 36.746 -0.148,35.767 -0.083,35.255 0.533 M38.678 0.256 C 38.252 0.682,38.785 1.180,39.411 0.941 C 39.732 0.817,39.896 0.555,39.774 0.358 C 39.515 -0.061,39.039 -0.106,38.678 0.256 M361.533 0.492 C 362.239 1.201,364.400 1.312,364.400 0.640 C 364.400 0.120,364.066 0.004,362.821 0.090 C 361.952 0.151,361.373 0.332,361.533 0.492 M366.597 0.395 C 366.711 0.580,366.579 0.834,366.302 0.958 C 366.026 1.083,366.475 1.118,367.300 1.036 C 368.385 0.929,368.800 1.042,368.800 1.444 C 368.800 1.750,369.115 2.003,369.500 2.006 C 370.318 2.013,373.061 2.927,373.459 3.326 C 373.610 3.477,374.243 3.600,374.867 3.600 C 375.490 3.600,376.000 3.801,376.000 4.047 C 376.000 4.296,376.353 4.401,376.801 4.284 C 377.241 4.169,377.508 4.225,377.395 4.409 C 377.281 4.592,377.551 4.857,377.994 4.998 C 378.437 5.139,378.800 5.422,378.800 5.627 C 378.800 5.832,378.999 6.000,379.243 6.000 C 379.486 6.000,379.593 5.760,379.481 5.467 C 379.368 5.173,379.521 4.933,379.821 4.933 C 380.120 4.933,380.285 5.063,380.187 5.221 C 380.089 5.380,380.252 5.711,380.550 5.958 C 380.986 6.321,381.052 6.207,380.891 5.366 C 380.722 4.480,380.522 4.350,379.546 4.493 C 378.396 4.662,377.964 4.242,378.900 3.865 C 379.175 3.754,378.995 3.649,378.500 3.632 C 378.005 3.614,377.600 3.399,377.600 3.153 C 377.600 2.904,377.247 2.799,376.800 2.916 C 376.280 3.052,376.000 2.928,376.000 2.563 C 376.000 2.233,375.596 2.000,375.024 2.000 C 374.487 2.000,373.936 1.820,373.800 1.600 C 373.664 1.380,373.113 1.200,372.576 1.200 C 372.039 1.200,371.600 1.020,371.600 0.800 C 371.600 0.580,371.246 0.400,370.813 0.400 C 370.245 0.400,370.087 0.596,370.245 1.100 C 370.453 1.761,370.433 1.761,369.897 1.112 C 369.334 0.430,366.198 -0.251,366.597 0.395 M28.600 0.800 C 28.464 1.020,27.900 1.200,27.347 1.200 C 26.607 1.200,26.377 1.384,26.475 1.895 C 26.660 2.856,27.805 2.990,28.893 2.179 C 29.606 1.646,29.639 1.557,29.043 1.760 C 28.385 1.985,28.357 1.934,28.822 1.373 C 29.311 0.784,29.398 0.783,29.823 1.364 C 30.309 2.028,31.200 2.233,31.200 1.680 C 31.200 0.662,29.120 -0.042,28.600 0.800 M24.000 2.487 C 24.000 2.659,23.995 2.925,23.990 3.078 C 23.961 3.829,25.833 3.564,25.889 2.809 C 25.935 2.197,25.725 2.032,24.975 2.094 C 24.439 2.138,24.000 2.315,24.000 2.487 M22.400 3.200 C 22.400 3.420,22.085 3.614,21.700 3.632 C 21.282 3.650,21.201 3.744,21.500 3.865 C 22.560 4.293,21.931 4.755,20.532 4.575 L 19.063 4.387 19.969 5.173 C 20.850 5.937,22.400 5.637,22.400 4.704 C 22.400 4.537,22.670 4.400,23.000 4.400 C 23.330 4.400,23.600 4.220,23.600 4.000 C 23.600 3.780,23.409 3.600,23.176 3.600 C 22.943 3.600,22.864 3.420,23.000 3.200 C 23.136 2.980,23.057 2.800,22.824 2.800 C 22.591 2.800,22.400 2.980,22.400 3.200 M17.734 5.827 C 17.325 6.894,18.216 7.374,19.255 6.646 C 20.028 6.105,20.062 6.000,19.465 6.000 C 19.073 6.000,18.864 5.820,19.000 5.600 C 19.136 5.380,18.961 5.200,18.611 5.200 C 18.261 5.200,17.867 5.482,17.734 5.827 M381.500 5.465 C 381.775 5.576,382.000 6.080,382.000 6.584 C 382.000 7.662,382.590 8.232,384.099 8.611 C 384.702 8.762,385.092 9.051,384.968 9.253 C 384.843 9.455,384.971 9.570,385.252 9.510 C 385.533 9.449,385.775 9.670,385.789 10.000 C 385.804 10.357,386.176 10.587,386.707 10.568 C 387.198 10.551,387.600 10.696,387.600 10.892 C 387.600 11.087,387.792 11.128,388.027 10.983 C 388.304 10.812,388.198 10.472,387.727 10.019 C 387.071 9.387,386.974 9.381,386.728 9.960 C 386.543 10.397,386.447 10.237,386.428 9.457 C 386.406 8.576,386.252 8.371,385.755 8.562 C 385.294 8.739,385.177 8.637,385.343 8.205 C 385.472 7.869,385.358 7.600,385.087 7.599 C 384.819 7.599,383.970 7.059,383.200 6.400 C 382.430 5.741,381.620 5.216,381.400 5.233 C 381.180 5.249,381.225 5.354,381.500 5.465 M14.861 7.554 C 14.117 8.026,14.447 9.360,15.351 9.534 C 15.838 9.627,16.025 9.492,15.896 9.138 C 15.788 8.842,15.498 8.645,15.250 8.700 C 14.659 8.831,14.675 8.285,15.280 7.680 C 15.837 7.123,15.636 7.062,14.861 7.554 M10.487 11.776 C 9.684 12.643,9.324 13.238,9.688 13.098 C 10.051 12.959,10.419 13.058,10.506 13.319 C 10.776 14.128,11.988 12.577,11.810 11.652 C 11.722 11.192,11.846 10.695,12.086 10.547 C 12.327 10.398,12.418 10.448,12.288 10.657 C 11.728 11.563,12.645 11.831,13.455 10.999 L 14.310 10.119 13.129 10.160 C 12.297 10.188,11.515 10.667,10.487 11.776 M387.800 11.600 C 387.260 11.832,387.196 11.953,387.604 11.972 C 387.936 11.987,388.423 12.345,388.687 12.767 C 388.982 13.240,389.453 13.459,389.916 13.338 C 390.400 13.211,390.667 13.351,390.667 13.733 C 390.667 14.093,390.433 14.234,390.068 14.094 C 389.678 13.944,389.570 14.028,389.758 14.332 C 389.917 14.589,390.292 14.800,390.590 14.800 C 390.889 14.800,391.220 15.025,391.326 15.300 C 391.432 15.575,391.507 15.350,391.492 14.800 C 391.477 14.250,390.920 13.215,390.254 12.500 C 388.938 11.087,388.968 11.098,387.800 11.600 M8.100 14.198 C 7.825 14.511,7.600 14.909,7.599 15.083 C 7.599 15.257,7.059 16.030,6.400 16.800 C 5.741 17.570,5.201 18.425,5.201 18.700 C 5.200 18.975,5.020 19.200,4.800 19.200 C 4.294 19.200,4.274 20.275,4.774 20.584 C 5.321 20.922,7.241 18.858,7.111 18.071 C 7.050 17.700,7.228 17.446,7.509 17.503 C 7.789 17.560,8.183 17.172,8.384 16.642 C 8.586 16.112,8.942 15.560,9.175 15.415 C 9.769 15.048,9.708 13.597,9.100 13.615 C 8.825 13.624,8.375 13.886,8.100 14.198 M392.316 17.261 C 391.916 17.514,391.912 17.589,392.300 17.594 C 392.575 17.597,392.806 17.825,392.813 18.100 C 392.820 18.375,393.114 18.960,393.467 19.400 C 393.987 20.050,394.062 20.069,393.866 19.500 C 393.700 19.016,393.838 18.790,394.313 18.768 C 394.730 18.749,394.803 18.658,394.500 18.535 C 394.225 18.424,394.000 18.018,394.000 17.633 C 394.000 16.894,393.180 16.712,392.316 17.261 M394.400 20.229 C 394.400 21.143,394.467 21.190,395.000 20.657 C 395.330 20.327,395.600 19.864,395.600 19.629 C 395.600 19.393,395.330 19.200,395.000 19.200 C 394.622 19.200,394.400 19.581,394.400 20.229 M3.843 21.091 C 3.709 21.224,3.600 21.464,3.600 21.624 C 3.600 22.035,4.739 22.423,4.945 22.083 C 5.174 21.703,4.151 20.783,3.843 21.091 M395.292 21.804 C 395.391 23.002,396.146 22.903,396.328 21.669 C 396.412 21.094,396.245 20.800,395.832 20.800 C 395.411 20.800,395.236 21.126,395.292 21.804 M2.800 23.200 C 2.800 23.640,2.620 24.000,2.400 24.000 C 2.180 24.000,2.000 24.270,2.000 24.600 C 2.000 24.930,2.248 25.200,2.551 25.200 C 3.329 25.200,4.126 24.128,3.773 23.556 C 3.585 23.252,3.646 23.181,3.938 23.362 C 4.192 23.519,4.400 23.476,4.400 23.266 C 4.400 22.942,3.504 22.400,2.967 22.400 C 2.875 22.400,2.800 22.760,2.800 23.200 M396.267 22.667 C 395.854 23.080,395.952 24.723,396.407 25.004 C 396.630 25.142,396.709 25.423,396.583 25.628 C 396.456 25.832,396.614 26.000,396.934 26.000 C 397.253 26.000,397.622 26.279,397.753 26.621 C 397.889 26.977,397.822 27.137,397.595 26.997 C 397.031 26.648,397.105 28.145,397.680 28.720 C 398.571 29.611,399.045 29.246,398.876 27.800 C 398.786 27.030,398.552 26.400,398.356 26.400 C 398.160 26.400,397.994 25.995,397.987 25.500 C 397.980 25.005,397.716 24.258,397.400 23.841 C 397.084 23.424,396.920 22.929,397.036 22.741 C 397.285 22.340,396.655 22.279,396.267 22.667 M1.364 26.599 C 1.227 27.149,1.214 27.859,1.336 28.179 C 1.485 28.567,1.367 28.686,0.980 28.537 C 0.227 28.248,0.192 29.730,0.937 30.348 C 1.608 30.904,2.000 30.539,2.000 29.357 C 2.000 28.857,2.197 28.325,2.438 28.177 C 2.678 28.028,2.795 27.484,2.696 26.967 C 2.597 26.451,2.715 25.946,2.958 25.846 C 3.201 25.745,2.998 25.649,2.508 25.632 C 1.876 25.609,1.542 25.892,1.364 26.599 M398.123 30.949 C 398.165 31.691,398.379 32.229,398.600 32.144 C 398.845 32.050,398.968 32.922,398.917 34.395 C 398.868 35.813,399.001 36.800,399.240 36.800 C 399.464 36.800,399.519 37.008,399.362 37.262 C 399.205 37.516,399.248 37.617,399.458 37.487 C 399.669 37.358,399.879 36.475,399.927 35.526 C 399.990 34.261,399.906 33.960,399.613 34.400 C 399.269 34.915,399.211 34.900,399.206 34.300 C 399.203 33.915,399.402 33.600,399.649 33.600 C 399.945 33.600,399.968 33.430,399.715 33.100 C 399.505 32.825,399.360 31.925,399.394 31.100 C 399.442 29.912,399.308 29.600,398.751 29.600 C 398.203 29.600,398.064 29.899,398.123 30.949 M-0.000 31.624 C -0.000 31.857,0.225 31.920,0.500 31.765 C 0.900 31.539,0.900 31.590,0.500 32.021 C -0.064 32.629,-0.192 36.800,0.353 36.800 C 0.852 36.800,1.188 35.322,1.195 33.100 C 1.199 31.675,1.050 31.200,0.600 31.200 C 0.270 31.200,-0.000 31.391,-0.000 31.624 M399.334 38.627 C 399.202 38.972,399.298 39.458,399.547 39.707 C 399.884 40.044,400.000 39.884,400.000 39.080 C 400.000 37.877,399.701 37.673,399.334 38.627 M399.210 362.376 C 398.732 363.530,398.900 364.400,399.602 364.400 C 399.798 364.400,399.929 363.680,399.894 362.800 C 399.818 360.888,399.825 360.892,399.210 362.376 M0.574 364.306 C -0.025 364.720,-0.132 367.959,0.431 368.637 C 0.688 368.947,0.741 369.206,0.549 369.213 C 0.357 369.220,0.560 369.514,1.000 369.867 C 1.650 370.387,1.669 370.462,1.100 370.266 C 0.193 369.954,0.120 371.407,1.025 371.754 C 1.369 371.886,1.550 372.156,1.428 372.355 C 1.306 372.553,1.467 373.341,1.787 374.107 C 2.107 374.872,2.285 375.611,2.184 375.749 C 2.083 375.887,2.131 375.899,2.292 375.775 C 2.809 375.375,2.823 371.998,2.307 372.104 C 1.999 372.167,1.831 371.511,1.819 370.200 C 1.803 368.552,1.678 368.210,1.104 368.255 C 0.695 368.287,0.520 368.130,0.678 367.873 C 0.869 367.564,1.186 363.945,1.017 364.006 C 1.008 364.009,0.808 364.144,0.574 364.306 M398.887 365.629 C 398.869 366.265,399.025 366.892,399.233 367.021 C 399.442 367.150,399.517 367.410,399.400 367.600 C 399.283 367.790,399.370 368.058,399.593 368.196 C 399.846 368.352,400.000 367.771,400.000 366.666 C 400.000 364.619,398.944 363.634,398.887 365.629 M398.238 368.645 C 398.061 369.106,398.163 369.223,398.595 369.057 C 398.966 368.915,399.200 369.053,399.200 369.413 C 399.200 369.736,398.919 370.000,398.576 370.000 C 398.233 370.000,398.055 370.165,398.179 370.366 C 398.303 370.567,398.222 370.793,397.999 370.867 C 397.322 371.093,397.167 372.800,397.823 372.800 C 398.140 372.800,398.400 372.963,398.400 373.163 C 398.400 373.362,398.060 373.436,397.645 373.328 C 397.230 373.219,396.757 373.345,396.595 373.608 C 396.384 373.950,396.569 374.012,397.250 373.826 C 398.199 373.567,398.199 373.568,397.200 374.169 C 396.355 374.678,396.318 374.774,396.956 374.786 C 397.881 374.803,398.770 373.705,398.787 372.524 C 398.794 372.042,398.980 371.536,399.200 371.400 C 399.913 370.959,399.565 368.000,398.800 368.000 C 398.627 368.000,398.374 368.290,398.238 368.645 M396.161 375.507 C 395.919 375.668,395.753 376.197,395.792 376.681 C 395.832 377.166,395.733 377.482,395.574 377.384 C 395.414 377.285,395.185 377.462,395.064 377.776 C 394.944 378.091,395.047 378.416,395.293 378.498 C 395.552 378.584,395.606 378.867,395.421 379.166 C 395.160 379.588,395.028 379.584,394.715 379.143 C 394.435 378.747,394.383 378.840,394.524 379.486 C 394.631 379.974,394.601 380.350,394.459 380.323 C 393.895 380.214,392.818 380.905,393.026 381.242 C 393.148 381.439,393.065 381.600,392.842 381.600 C 392.620 381.600,392.139 382.228,391.775 382.996 C 391.410 383.765,390.994 384.320,390.850 384.231 C 390.705 384.141,390.382 384.503,390.131 385.034 C 389.763 385.813,389.784 386.000,390.238 386.000 C 390.547 386.000,390.800 386.199,390.800 386.443 C 390.800 386.686,390.539 386.786,390.220 386.663 C 389.827 386.512,389.714 386.633,389.870 387.038 C 390.279 388.103,391.594 386.475,391.646 384.838 C 391.672 384.047,391.774 383.711,391.874 384.090 C 392.153 385.155,393.100 384.058,392.883 382.921 C 392.764 382.299,392.897 382.000,393.292 382.000 C 394.125 382.000,395.600 380.627,395.600 379.853 C 395.600 379.494,395.780 379.200,396.000 379.200 C 396.220 379.200,396.400 378.855,396.400 378.433 C 396.400 378.012,396.563 377.607,396.762 377.533 C 397.278 377.343,397.479 375.500,397.000 375.344 C 396.780 375.272,396.402 375.345,396.161 375.507 M3.600 376.424 C 3.600 376.657,3.420 376.736,3.200 376.600 C 2.980 376.464,2.800 376.633,2.800 376.976 C 2.800 377.319,2.980 377.600,3.200 377.600 C 3.420 377.600,3.600 377.960,3.600 378.400 C 3.600 379.145,4.038 379.401,5.000 379.219 C 5.220 379.177,5.175 379.372,4.900 379.651 C 4.199 380.365,4.275 380.706,5.200 381.000 C 5.640 381.140,6.000 381.432,6.000 381.651 C 6.000 381.869,5.807 381.928,5.570 381.782 C 5.334 381.636,5.378 381.895,5.667 382.358 C 6.205 383.220,7.376 383.486,7.777 382.837 C 7.900 382.638,7.596 382.580,7.101 382.710 C 6.211 382.942,6.209 382.935,6.971 382.172 C 7.667 381.476,7.677 381.387,7.071 381.271 C 6.702 381.200,6.400 380.885,6.400 380.571 C 6.400 380.257,6.209 380.000,5.976 380.000 C 5.743 380.000,5.681 380.208,5.838 380.462 C 6.011 380.741,5.948 380.815,5.679 380.649 C 5.435 380.498,5.336 380.111,5.459 379.790 C 5.600 379.422,5.334 379.065,4.742 378.828 C 4.032 378.544,3.975 378.444,4.510 378.425 C 5.170 378.402,5.177 378.315,4.600 377.200 C 3.960 375.963,3.600 375.683,3.600 376.424 M7.211 383.585 C 6.707 383.904,6.721 383.995,7.309 384.220 C 7.686 384.365,7.898 384.642,7.778 384.836 C 7.658 385.029,8.154 385.794,8.880 386.536 C 9.606 387.277,10.465 388.271,10.789 388.743 C 11.176 389.307,11.726 389.568,12.389 389.501 C 13.227 389.417,13.383 389.556,13.303 390.311 C 13.225 391.039,13.452 391.270,14.437 391.467 C 15.115 391.603,15.776 392.003,15.907 392.357 C 16.260 393.313,18.096 394.799,18.924 394.800 C 19.322 394.800,19.536 394.980,19.400 395.200 C 19.264 395.420,19.523 395.600,19.976 395.600 C 20.429 395.600,20.800 395.780,20.800 396.000 C 20.800 396.220,21.160 396.400,21.600 396.400 C 22.040 396.400,22.400 396.599,22.400 396.843 C 22.400 397.086,22.665 397.184,22.989 397.059 C 23.314 396.935,23.730 397.103,23.914 397.432 C 24.195 397.935,24.372 397.885,25.024 397.122 C 25.551 396.505,25.587 396.378,25.135 396.727 C 24.569 397.164,24.313 397.073,23.417 396.120 C 22.578 395.226,22.417 395.162,22.620 395.800 C 22.845 396.509,22.789 396.495,22.121 395.680 C 21.577 395.017,21.149 394.843,20.584 395.055 C 19.896 395.314,19.865 395.269,20.335 394.691 C 20.940 393.947,19.316 393.234,18.361 393.824 C 18.078 393.999,17.980 393.956,18.125 393.721 C 18.584 392.979,17.289 391.696,16.791 392.400 C 16.414 392.933,16.376 392.933,16.446 392.400 C 16.598 391.263,15.926 390.400,14.891 390.400 C 14.327 390.400,13.975 390.292,14.107 390.159 C 14.390 389.876,9.749 385.200,9.185 385.200 C 8.973 385.200,8.800 384.750,8.800 384.200 C 8.800 383.164,8.228 382.942,7.211 383.585 M388.886 386.988 C 389.043 387.163,389.008 387.612,388.808 387.986 C 388.555 388.458,388.596 388.667,388.942 388.667 C 389.587 388.667,389.693 387.298,389.075 386.944 C 388.814 386.794,388.729 386.814,388.886 386.988 M386.441 389.523 C 386.228 389.921,385.233 390.669,384.229 391.185 C 382.787 391.926,382.498 392.236,382.851 392.662 C 383.492 393.434,383.958 393.325,383.730 392.455 C 383.597 391.946,383.792 391.643,384.347 391.498 C 384.793 391.381,385.212 391.492,385.279 391.743 C 385.346 391.995,385.938 391.684,386.600 391.048 C 387.287 390.389,387.510 389.995,387.120 390.128 C 386.651 390.288,386.507 390.188,386.653 389.805 C 386.774 389.491,387.140 389.356,387.499 389.493 C 387.917 389.654,388.033 389.578,387.842 389.268 C 387.425 388.593,386.886 388.692,386.441 389.523 M380.806 393.385 C 380.809 393.613,380.987 394.070,381.200 394.400 C 381.552 394.945,381.693 394.694,381.566 393.745 C 381.547 393.604,381.770 393.342,382.061 393.162 C 382.423 392.939,382.307 392.857,381.695 392.903 C 381.203 392.940,380.803 393.157,380.806 393.385 M379.565 394.200 C 379.532 394.420,379.518 394.708,379.533 394.841 C 379.548 394.973,379.123 394.998,378.588 394.896 C 377.615 394.710,376.368 396.535,377.044 397.155 C 377.190 397.290,377.390 397.175,377.488 396.900 C 377.586 396.625,378.012 396.400,378.433 396.400 C 378.855 396.400,379.200 396.233,379.200 396.028 C 379.200 395.823,379.570 395.598,380.021 395.528 C 380.776 395.410,380.793 395.336,380.234 394.600 C 379.899 394.160,379.598 393.980,379.565 394.200 M25.626 397.369 C 25.157 397.934,27.322 398.992,28.232 398.643 C 28.579 398.510,28.736 398.579,28.597 398.805 C 28.463 399.022,28.498 399.218,28.676 399.240 C 30.809 399.501,31.117 399.445,30.904 398.836 C 30.724 398.320,30.783 398.294,31.221 398.700 C 31.518 398.975,32.174 399.200,32.680 399.200 C 33.186 399.200,33.600 399.352,33.600 399.537 C 33.600 399.722,34.320 399.857,35.201 399.837 C 37.637 399.781,37.113 399.008,34.595 398.943 C 33.380 398.912,32.164 398.719,31.893 398.516 C 31.622 398.312,30.878 398.112,30.240 398.072 C 29.603 398.032,28.883 397.843,28.640 397.653 C 27.891 397.064,26.025 396.888,25.626 397.369 M375.778 397.235 C 375.618 397.494,374.759 397.596,373.662 397.486 C 371.561 397.277,369.959 397.827,370.274 398.650 C 370.400 398.976,370.224 399.200,369.843 399.200 C 369.489 399.200,369.245 398.982,369.300 398.716 C 369.355 398.450,369.010 398.205,368.534 398.172 C 367.956 398.132,367.737 398.292,367.876 398.655 C 368.028 399.051,367.777 399.157,366.942 399.050 C 366.314 398.969,366.025 398.983,366.300 399.081 C 366.575 399.179,366.800 399.417,366.800 399.610 C 366.800 400.337,370.980 399.523,371.735 398.650 C 372.139 398.182,372.353 398.025,372.211 398.300 C 371.899 398.905,373.428 399.001,373.800 398.400 C 373.936 398.180,374.467 398.000,374.981 398.000 C 375.494 398.000,376.018 397.730,376.145 397.400 C 376.412 396.705,376.173 396.597,375.778 397.235 M362.400 399.424 C 362.400 399.816,362.848 400.000,363.800 400.000 C 364.965 400.000,365.873 399.302,364.900 399.154 C 362.885 398.848,362.400 398.900,362.400 399.424 " stroke="none" fill="#0484fc" fill-rule="evenodd"></path><path id="path4" d="" stroke="none" fill="#100c0fc" fill-rule="evenodd"></path></g></svg>